<svg width="25" height="25" viewBox="0 0 25 25" fill="none" xmlns="http://www.w3.org/2000/svg">
<path d="M0.5 12.5C0.5 5.87214 5.87214 0.5 12.5 0.5C19.1279 0.5 24.5 5.87214 24.5 12.5C24.5 19.1279 19.1279 24.5 12.5 24.5C5.87214 24.5 0.5 19.1279 0.5 12.5ZM14 19V14H19C19.3978 14 19.7794 13.842 20.0607 13.5607C20.342 13.2794 20.5 12.8978 20.5 12.5C20.5 12.1022 20.342 11.7206 20.0607 11.4393C19.7794 11.158 19.3978 11 19 11H14V6C14 5.60218 13.842 5.22064 13.5607 4.93934C13.2794 4.65804 12.8978 4.5 12.5 4.5C12.1022 4.5 11.7206 4.65804 11.4393 4.93934C11.158 5.22064 11 5.60218 11 6V11H6C5.60218 11 5.22064 11.158 4.93934 11.4393C4.65804 11.7206 4.5 12.1022 4.5 12.5C4.5 12.8978 4.65804 13.2794 4.93934 13.5607C5.22064 13.842 5.60218 14 6 14H11V19C11 19.3978 11.158 19.7794 11.4393 20.0607C11.7206 20.342 12.1022 20.5 12.5 20.5C12.8978 20.5 13.2794 20.342 13.5607 20.0607C13.842 19.7794 14 19.3978 14 19Z" fill="#808080" stroke="black"/>
</svg>
